<svg width="46" height="47" viewBox="0 0 46 47" fill="none" xmlns="http://www.w3.org/2000/svg">
<rect x="1" y="1" width="44" height="45" rx="22" stroke="white" stroke-width="2"/>
<g clip-path="url(#clip0)">
<path d="M14.375 23.0811C14.375 22.99 14.375 22.8989 14.375 22.8078C14.5983 22.4845 14.9203 22.3114 15.2595 22.1748C20.0772 20.2073 24.8949 18.2399 29.7083 16.2588C30.3523 15.9946 30.8204 16.2724 30.8848 16.8964C30.8848 16.91 30.8977 16.9237 30.9062 16.9374C30.9062 17.0148 30.9062 17.0877 30.9062 17.1651C30.8848 17.2653 30.859 17.37 30.8375 17.4702C30.1849 20.7265 29.5365 23.9828 28.8839 27.2437C28.6906 28.2046 28.5103 29.1701 28.2913 30.1265C28.1281 30.8279 27.673 31.0191 27.0633 30.7003C26.986 30.6594 26.913 30.6093 26.8443 30.5546C25.7064 29.662 24.5643 28.7693 23.4264 27.8767C23.3405 27.8084 23.2546 27.7446 23.1688 27.6763C23.1044 27.7401 23.0528 27.7947 23.0013 27.8448C22.4259 28.4369 21.8506 29.0289 21.2752 29.621C21.0863 29.8123 20.8844 29.9626 20.5968 29.9443C20.5968 29.876 20.5925 29.8259 20.5968 29.7713C20.6698 28.5143 20.7428 27.2573 20.8286 26.0003C20.8372 25.8956 20.9102 25.7772 20.9875 25.7043C22.8081 23.9555 24.6287 22.2158 26.4535 20.4715C26.9216 20.0252 27.3896 19.5788 27.8533 19.128C27.9134 19.0688 27.9349 18.964 27.9779 18.882C27.8791 18.8593 27.776 18.7955 27.6859 18.8183C27.5442 18.8547 27.4068 18.9321 27.2823 19.0187C24.4827 20.8905 21.6874 22.7668 18.8878 24.6432C18.7805 24.716 18.686 24.7525 18.5529 24.7069C17.3506 24.2971 16.1484 23.8917 14.9461 23.4864C14.7142 23.4135 14.5124 23.3042 14.375 23.0811Z" fill="white"/>
</g>
<defs>
<clipPath id="clip0">
<rect width="16.5312" height="14.6875" fill="white" transform="translate(14.375 16.1562)"/>
</clipPath>
</defs>
</svg>
