<svg width="48" height="47" viewBox="0 0 48 47" fill="none" xmlns="http://www.w3.org/2000/svg">
<rect x="1" y="1" width="46" height="45" rx="22.5" stroke="white" stroke-width="2"/>
<path d="M32.3924 26.05C30.5065 24.2571 30.7636 24.5986 33.0781 21.525C34.4497 19.6467 35.0498 18.5368 34.8783 18.0245C34.7069 17.5976 33.6782 17.683 33.6782 17.683H30.2493C30.2493 17.683 29.9922 17.683 29.8207 17.7684C29.6493 17.8538 29.4778 18.1099 29.4778 18.1099C29.4778 18.1099 28.9635 19.5613 28.192 20.7566C26.649 23.318 26.0489 23.4887 25.7917 23.318C25.1917 22.9764 25.3631 21.7812 25.3631 21.0128C25.3631 18.5368 25.7061 17.4269 24.5917 17.1708C24.2488 17.0854 23.9059 17 22.963 17C21.7629 17 20.7341 17 20.1341 17.2561C19.7055 17.4269 19.4483 17.8538 19.6198 17.9392C19.8769 17.9392 20.3912 18.1099 20.6484 18.4514C20.9913 18.9637 20.9913 19.9882 20.9913 19.9882C20.9913 19.9882 21.1628 22.9764 20.477 23.318C20.0484 23.5741 19.3626 23.0618 17.991 20.6712C17.3053 19.476 16.7909 18.1099 16.7909 18.1099C16.7909 18.1099 16.7053 17.8538 16.5338 17.7684C16.2766 17.5976 16.0195 17.5976 16.0195 17.5976H12.762C12.762 17.5976 12.2476 17.5976 12.0762 17.8538C11.9048 18.0245 12.0762 18.4514 12.0762 18.4514C12.0762 18.4514 14.6479 24.4279 17.5624 27.4161C20.2198 30.1482 23.2201 29.9774 23.2201 29.9774H24.5917C24.5917 29.9774 25.0203 29.892 25.1917 29.7213C25.3632 29.5505 25.3631 29.1236 25.3631 29.1236C25.3631 29.1236 25.3631 27.3307 26.2203 26.9892C27.0776 26.7331 28.1063 28.7821 29.3064 29.5505C30.1636 30.1482 30.8493 29.9774 30.8493 29.9774L33.9353 29.8921C33.9353 29.8921 35.564 29.8067 34.7925 28.526C34.5354 28.6114 34.1926 27.7576 32.3924 26.05Z" fill="white"/>
</svg>
