<svg width="179" height="40" viewBox="0 0 179 40" fill="none" xmlns="http://www.w3.org/2000/svg">
<path d="M58.1004 20.1096C58.1004 25.2845 54.9541 30.0306 49.7412 33.5059C44.5318 36.9788 37.3063 39.1431 29.3002 39.1431C21.2941 39.1431 14.0686 36.9788 8.85918 33.5059C3.64628 30.0306 0.5 25.2845 0.5 20.1096C0.5 14.9348 3.64628 10.1887 8.85918 6.71342C14.0686 3.24048 21.2941 1.07617 29.3002 1.07617C37.3063 1.07617 44.5318 3.24048 49.7412 6.71342C54.9541 10.1887 58.1004 14.9348 58.1004 20.1096Z" fill="white" stroke="black"/>
<path d="M99.1443 25.3938H101.066V14.4551H92.3467V25.3938H94.2688V16.2522H99.1443V25.3938Z" fill="white"/>
<path d="M106.332 25.3938V21.4403C106.801 21.4871 107.426 21.4871 107.754 21.4871C110.364 21.4871 111.754 19.7994 111.754 17.9399C111.754 16.1428 110.739 14.4238 107.52 14.4238C106.754 14.4238 105.019 14.4551 104.41 14.4551V25.3938H106.332ZM107.707 16.2209C109.02 16.2209 109.723 16.7835 109.723 17.9242C109.723 19.1431 108.832 19.6901 107.691 19.6901C107.254 19.6901 106.785 19.6588 106.332 19.6119V16.2522C106.848 16.2365 107.316 16.2209 107.707 16.2209Z" fill="white"/>
<path d="M111.947 25.3938H113.884L115.025 22.5966H119.698L120.838 25.3938H122.885L118.26 14.4238H116.572L111.947 25.3938ZM117.369 16.9085L118.963 20.7996H115.76L117.369 16.9085Z" fill="white"/>
<path d="M124.993 25.3938H126.915V19.7526L131.384 25.3938H133.822L129.04 19.5494L133.54 14.4551H131.228L126.915 19.6432V14.4551H124.993V25.3938Z" fill="white"/>
<path d="M134.757 16.2522H138.305V25.3938H140.227V16.2522H143.774V14.4551H134.757V16.2522Z" fill="white"/>
<path d="M147.598 25.3938L153.333 17.6273V25.3938H155.255V14.4551H153.567L147.832 22.2372V14.4551H145.91V25.3938H147.598Z" fill="white"/>
<path d="M158.442 25.3938H160.365V19.7526L164.834 25.3938H167.272L162.49 19.5494L166.99 14.4551H164.678L160.365 19.6432V14.4551H158.442V25.3938Z" fill="white"/>
<path d="M167.926 25.3938H169.864L171.004 22.5966H175.677L176.818 25.3938H178.865L174.239 14.4238H172.551L167.926 25.3938ZM173.348 16.9085L174.942 20.7996H171.739L173.348 16.9085Z" fill="white"/>
<path d="M33.2075 19.5811L43.2075 25.3546L43.2075 13.8076L33.2075 19.5811ZM83.1018 19.5811L73.1018 13.8076L73.1018 25.3546L83.1018 19.5811ZM42.2075 20.5811L74.1018 20.5811L74.1018 18.5811L42.2075 18.5811L42.2075 20.5811Z" fill="white"/>
<path d="M29.646 19.582L39.646 25.3555L39.646 13.8085L29.646 19.582ZM38.646 20.582L58.6007 20.5821L58.6007 18.5821L38.646 18.582L38.646 20.582Z" fill="black"/>
</svg>
