<svg width="248" height="248" viewBox="0 0 248 248" fill="none" xmlns="http://www.w3.org/2000/svg">
<path d="M90.3668 159.116C96.2069 164.956 97.9866 173.838 96.0433 183.554C94.1008 193.266 88.4444 203.752 79.5119 212.684C70.5794 221.616 60.0942 227.273 50.3819 229.215C40.6655 231.159 31.7843 229.379 25.9443 223.539C20.1043 217.699 18.3246 208.818 20.2678 199.101C22.2103 189.389 27.8668 178.904 36.7992 169.971C45.7317 161.039 56.2169 155.382 65.9292 153.44C75.6457 151.497 84.5268 153.276 90.3668 159.116Z" fill="white" stroke="black"/>
<path d="M141.654 119.574L143.79 117.438L131.632 105.28L121.941 114.971L134.099 127.129L136.235 124.993L126.075 114.832L131.493 109.414L141.654 119.574Z" fill="white"/>
<path d="M149.642 111.585L145.248 107.191C145.821 106.722 146.516 106.028 146.88 105.663C149.781 102.762 149.451 99.341 147.384 97.2742C145.387 95.2769 142.347 94.4953 138.77 98.0731C137.919 98.9241 136.026 100.887 135.348 101.564L147.506 113.722L149.642 111.585ZM140.975 99.862C142.434 98.4031 143.841 98.2468 145.109 99.5146C146.464 100.869 146.082 102.467 144.814 103.735C144.327 104.221 143.772 104.708 143.216 105.159L139.482 101.425C140.038 100.835 140.541 100.296 140.975 99.862Z" fill="white"/>
<path d="M155.882 105.345L158.036 103.191L156.195 98.8146L161.388 93.6216L165.765 95.4626L168.04 93.1874L150.707 86.1361L148.831 88.0118L155.882 105.345ZM152.478 89.8875L158.574 92.4406L155.014 96.001L152.478 89.8875Z" fill="white"/>
<path d="M170.382 90.8455L172.518 88.7092L166.248 82.4394L177.485 83.742L180.195 81.0326L168.385 79.8516L167.725 69.1877L165.154 71.7581L166.127 82.3178L160.361 76.5517L158.224 78.6879L170.382 90.8455Z" fill="white"/>
<path d="M171.074 69.8325L175.017 65.89L185.177 76.0502L187.313 73.9139L177.153 63.7537L181.096 59.8112L179.098 57.8139L169.077 67.8352L171.074 69.8325Z" fill="white"/>
<path d="M195.505 65.7219L193.248 50.716L201.879 59.3478L204.016 57.2116L191.858 45.054L189.982 46.9298L192.258 61.953L183.608 53.3038L181.472 55.4401L193.63 67.5976L195.505 65.7219Z" fill="white"/>
<path d="M207.559 53.6687L209.695 51.5324L203.425 45.2626L214.662 46.5652L217.372 43.8558L205.561 42.6748L204.901 32.0109L202.331 34.5813L203.304 45.141L197.537 39.3749L195.401 41.5111L207.559 53.6687Z" fill="white"/>
<path d="M218.099 43.1285L220.252 40.9749L218.411 36.5982L223.604 31.4052L227.981 33.2462L230.256 30.971L212.923 23.9196L211.047 25.7953L218.099 43.1285ZM214.695 27.6711L220.791 30.2242L217.23 33.7846L214.695 27.6711Z" fill="white"/>
<path d="M61.9104 186.398L73.064 183.409L64.899 175.244L61.9104 186.398ZM117.364 130.944L106.21 133.933L114.375 142.098L117.364 130.944ZM68.9815 180.741L111.707 138.016L110.293 136.601L67.5673 179.327L68.9815 180.741Z" fill="white"/>
<path d="M57.953 190.357L69.1065 187.368L60.9416 179.203L57.953 190.357ZM65.024 184.7L90.841 158.883L89.4267 157.469L63.6098 183.286L65.024 184.7Z" fill="black"/>
</svg>
