<svg width="330" height="151" viewBox="0 0 330 151" fill="none" xmlns="http://www.w3.org/2000/svg">
<path d="M126.354 72.857C126.354 76.345 128.85 78.633 132.178 78.633C135.506 78.633 138.018 76.217 138.018 72.857C138.018 69.369 135.506 67.081 132.178 67.081C128.738 67.081 126.354 69.609 126.354 72.857ZM128.434 72.857C128.434 70.537 130.034 68.921 132.178 68.921C134.29 68.921 135.938 70.537 135.938 72.857C135.938 75.065 134.53 76.793 132.178 76.793C130.082 76.793 128.434 75.097 128.434 72.857ZM138.708 69.097H142.34V78.457H144.308V69.097H147.94V67.257H138.708V69.097ZM149.966 78.457H151.934V72.681L156.51 78.457H159.006L154.11 72.473L158.718 67.257H156.35L151.934 72.569V67.257H149.966V78.457ZM163.004 78.457V74.409C163.484 74.457 164.124 74.457 164.46 74.457C167.132 74.457 168.556 72.729 168.556 70.825C168.556 68.985 167.516 67.225 164.22 67.225C163.436 67.225 161.66 67.257 161.036 67.257V78.457H163.004ZM164.412 69.065C165.756 69.065 166.476 69.641 166.476 70.809C166.476 72.057 165.564 72.617 164.396 72.617C163.948 72.617 163.468 72.585 163.004 72.537V69.097C163.532 69.081 164.012 69.065 164.412 69.065ZM179.921 78.457H181.873V67.257H179.921V78.457ZM174.209 72.857C175.585 72.857 176.385 73.481 176.385 74.681C176.385 75.993 175.617 76.649 174.177 76.649C173.793 76.649 173.473 76.617 173.121 76.601V72.937C173.569 72.889 173.905 72.857 174.209 72.857ZM173.121 67.257H171.153V78.457C171.809 78.457 172.881 78.489 173.937 78.489C176.801 78.489 178.465 77.001 178.465 74.633C178.465 72.441 177.137 71.017 174.369 71.017C174.049 71.017 173.617 71.033 173.121 71.097V67.257ZM183.909 69.097H187.541V78.457H189.509V69.097H193.141V67.257H183.909V69.097ZM198.256 72.857C199.632 72.857 200.56 73.417 200.56 74.681C200.56 76.057 199.664 76.649 198.224 76.649C197.84 76.649 197.488 76.617 197.136 76.601V72.937C197.584 72.889 197.968 72.857 198.256 72.857ZM197.136 67.257H195.168V78.457C195.824 78.457 196.928 78.489 198 78.489C200.976 78.489 202.64 77.001 202.64 74.633C202.64 72.441 201.312 71.017 198.416 71.017C198.112 71.017 197.632 71.033 197.136 71.097V67.257Z" fill="white"/>
<path d="M10.1001 44.3145C8.97633 49.9039 11.8724 56.257 18.626 63.0475C25.3485 69.8066 35.704 76.7983 48.9608 83.6027C75.4617 97.205 113.346 109.953 156.328 118.594C199.309 127.236 239.177 130.12 268.875 127.817C283.732 126.665 295.985 124.219 304.797 120.583C313.651 116.93 318.777 112.19 319.901 106.601C321.024 101.011 318.128 94.6583 311.375 87.8678C304.652 81.1087 294.297 74.117 281.04 67.3126C254.539 53.7103 216.655 40.9624 173.673 32.3208C130.692 23.6793 90.8241 20.795 61.1254 23.0982C46.2689 24.2504 34.0159 26.6965 25.2035 30.3323C16.3502 33.985 11.2239 38.7252 10.1001 44.3145Z" stroke="white" stroke-width="2" stroke-linecap="round"/>
<path d="M56.1462 114.214L50.3727 104.214L61.9197 104.214L56.1462 114.214ZM56.1461 59.1237L61.9197 69.1237L50.3727 69.1237L56.1461 59.1237ZM55.1462 105.214L55.1462 68.1237L57.1462 68.1237L57.1462 105.214L55.1462 105.214Z" fill="white"/>
</svg>
