<svg width="330" height="152" viewBox="0 0 330 152" fill="none" xmlns="http://www.w3.org/2000/svg">
<path d="M108.615 78.7832V74.7352C109.095 74.7832 109.735 74.7832 110.071 74.7832C112.743 74.7832 114.167 73.0552 114.167 71.1512C114.167 69.3112 113.127 67.5512 109.831 67.5512C109.047 67.5512 107.271 67.5832 106.647 67.5832V78.7832H108.615ZM110.023 69.3912C111.367 69.3912 112.087 69.9672 112.087 71.1352C112.087 72.3832 111.175 72.9432 110.007 72.9432C109.559 72.9432 109.079 72.9112 108.615 72.8632V69.4232C109.143 69.4072 109.623 69.3912 110.023 69.3912ZM116.764 78.7832H123.404V76.9432H118.732V74.0472H122.764V72.2072H118.732V69.4232H123.244V67.5832H116.764V78.7832ZM126.287 78.7832H128.255V69.4232H132.607V67.5832H126.287V78.7832ZM136.445 78.7832L142.317 70.8312V78.7832H144.285V67.5832H142.557L136.685 75.5512V67.5832H134.717V78.7832H136.445ZM155.485 76.2232C154.717 76.8152 153.773 77.1192 152.829 77.1192C150.541 77.1192 148.957 75.5192 148.957 73.1832C148.957 70.7512 150.525 69.2472 152.605 69.2472C153.725 69.2472 154.461 69.5512 155.133 69.9992L156.013 68.5432C155.277 67.8712 154.061 67.4072 152.605 67.4072C148.909 67.4072 146.877 69.9672 146.877 73.1832C146.877 76.6712 149.229 78.9592 152.653 78.9592C154.109 78.9592 155.533 78.4472 156.237 77.6952L155.485 76.2232ZM157.121 69.4232H160.753V78.7832H162.721V69.4232H166.353V67.5832H157.121V69.4232ZM170.348 78.7832V74.7352C170.828 74.7832 171.468 74.7832 171.804 74.7832C174.476 74.7832 175.9 73.0552 175.9 71.1512C175.9 69.3112 174.86 67.5512 171.564 67.5512C170.78 67.5512 169.004 67.5832 168.38 67.5832V78.7832H170.348ZM171.756 69.3912C173.1 69.3912 173.82 69.9672 173.82 71.1352C173.82 72.3832 172.908 72.9432 171.74 72.9432C171.292 72.9432 170.812 72.9112 170.348 72.8632V69.4232C170.876 69.4072 171.356 69.3912 171.756 69.3912ZM176.025 78.7832H178.009L179.177 75.9192H183.961L185.129 78.7832H187.225L182.489 67.5512H180.761L176.025 78.7832ZM181.577 70.0952L183.209 74.0792H179.929L181.577 70.0952ZM189.223 78.7832H197.751V80.7832H199.591V76.9432H198.071V67.5832H196.103V76.9432H191.191V67.5832H189.223V78.7832ZM203.583 78.7832L209.455 70.8312V78.7832H211.423V67.5832H209.695L203.823 75.5512V67.5832H201.855V78.7832H203.583ZM219.903 78.7832H221.855V67.5832C221.199 67.5832 219.791 67.5352 219.071 67.5352C215.807 67.5352 214.463 69.3432 214.463 71.4072C214.463 72.9592 215.391 73.9832 216.431 74.5112L213.567 78.7832H215.775L218.287 74.9112H219.903V78.7832ZM218.111 73.0712C217.311 72.9112 216.543 72.2872 216.543 71.2792C216.543 70.1592 217.375 69.3752 218.671 69.3752C219.007 69.3752 219.631 69.4072 219.903 69.4232V73.0712H218.111Z" fill="white"/>
<path d="M319.651 44.6407C320.775 50.2301 317.879 56.5832 311.125 63.3737C304.402 70.1328 294.047 77.1244 280.79 83.9288C254.289 97.5311 216.405 110.279 173.423 118.921C130.442 127.562 90.5742 130.446 60.8755 128.143C46.0191 126.991 33.7661 124.545 24.9537 120.909C16.1004 117.256 10.974 112.516 9.85025 106.927C8.72649 101.338 11.6225 94.9844 18.3762 88.1939C25.0987 81.4348 35.4542 74.4432 48.711 67.6388C75.2118 54.0365 113.096 41.2885 156.078 32.647C199.059 24.0055 238.927 21.1212 268.626 23.4244C283.482 24.5766 295.735 27.0227 304.547 30.6585C313.401 34.3112 318.527 39.0513 319.651 44.6407Z" stroke="white" stroke-width="2" stroke-linecap="round"/>
<path d="M273.605 114.54L279.378 104.54L267.831 104.54L273.605 114.54ZM273.605 59.4499L267.831 69.4498L279.378 69.4499L273.605 59.4499ZM274.605 105.54L274.605 68.4499L272.605 68.4499L272.605 105.54L274.605 105.54Z" fill="white"/>
</svg>
